<svg xmlns="http://www.w3.org/2000/svg" width="208" height="42" viewBox="0 0 208 42"><defs><style>.a,.c{isolation:isolate;}.b{fill:#717171;}.c,.d{fill:#2d62ed;}.c{opacity:0.5;}</style></defs><g class="a" transform="translate(63.694 10.999)"><g class="a"><path class="b" d="M101.885,24.059H95.16V20.88h17.209v3.179h-6.725v17.1h-3.765Z" transform="translate(-95.16 -19.658)"/><path class="b" d="M134.74,36.514H122.6a4.239,4.239,0,0,0,1.667,2.706,5.426,5.426,0,0,0,3.341,1,5.652,5.652,0,0,0,4.239-1.681l1.936,2.232a6.506,6.506,0,0,1-2.67,1.907,10.477,10.477,0,0,1-8.082-.374,7.319,7.319,0,0,1-3-2.826,7.962,7.962,0,0,1-1.06-4.1,8.1,8.1,0,0,1,1.031-4.069,7.319,7.319,0,0,1,2.826-2.826,8.287,8.287,0,0,1,4.112-1.01,8.138,8.138,0,0,1,4.055.968,7.107,7.107,0,0,1,2.783,2.826,8.534,8.534,0,0,1,1,4.182A9.052,9.052,0,0,1,134.74,36.514Zm-10.7-5.136a4.316,4.316,0,0,0-1.462,2.741h8.774a4.239,4.239,0,0,0-4.373-3.765,4.359,4.359,0,0,0-2.939,1.024Z" transform="translate(-102.152 -21.594)"/><path class="b" d="M148.544,42.262a7.439,7.439,0,0,1-2.988-2.826,7.9,7.9,0,0,1-1.067-4.1,7.806,7.806,0,0,1,1.067-4.083,7.5,7.5,0,0,1,2.974-2.826,9.007,9.007,0,0,1,4.331-1.01,8.28,8.28,0,0,1,4,.94,5.984,5.984,0,0,1,2.593,2.663l-2.776,1.625a4.43,4.43,0,0,0-1.667-1.611,4.5,4.5,0,0,0-2.183-.537,4.571,4.571,0,0,0-3.363,1.321,4.712,4.712,0,0,0-1.335,3.532,4.733,4.733,0,0,0,1.321,3.532,4.875,4.875,0,0,0,5.56.784,4.486,4.486,0,0,0,1.667-1.611l2.776,1.625a6.224,6.224,0,0,1-2.593,2.649,8.131,8.131,0,0,1-3.977.94,9.113,9.113,0,0,1-4.338-1.01Z" transform="translate(-109.64 -21.577)"/><path class="b" d="M183.4,26.709a6.763,6.763,0,0,1,1.766,5.072v8.866h-3.617v-8.4a4.352,4.352,0,0,0-.975-3.059,3.532,3.532,0,0,0-2.727-1.031,4.175,4.175,0,0,0-3.158,1.208,4.79,4.79,0,0,0-1.159,3.462v7.82H169.91V19.15h3.6v7.82a5.906,5.906,0,0,1,2.218-1.462,8.1,8.1,0,0,1,2.939-.5,6.471,6.471,0,0,1,4.733,1.7Z" transform="translate(-117.103 -19.15)"/><path class="b" d="M198.48,20.879h8.845a12.716,12.716,0,0,1,5.765,1.257A9.311,9.311,0,0,1,217,25.669a10.046,10.046,0,0,1,1.413,5.32A10.017,10.017,0,0,1,217,36.3a9.311,9.311,0,0,1-3.907,3.532,12.716,12.716,0,0,1-5.765,1.321H198.48Zm8.689,17.089a8.668,8.668,0,0,0,3.928-.855,6.132,6.132,0,0,0,2.586-2.437,7.192,7.192,0,0,0,.911-3.659,7.206,7.206,0,0,0-.911-3.695,6.132,6.132,0,0,0-2.607-2.437,8.668,8.668,0,0,0-3.928-.855H202.2V37.968Z" transform="translate(-125.49 -19.657)"/><path class="b" d="M242.535,29.075a6.357,6.357,0,0,1,1.809,4.945v9.064h-3.412V41.2a4.189,4.189,0,0,1-1.9,1.547,8.28,8.28,0,0,1-6.012-.057,4.691,4.691,0,0,1-2.013-1.653,4.161,4.161,0,0,1-.706-2.388,4.09,4.09,0,0,1,1.547-3.342,7.694,7.694,0,0,1,4.882-1.265h4v-.226a3.179,3.179,0,0,0-.968-2.494,4.239,4.239,0,0,0-2.882-.869,8.385,8.385,0,0,0-2.564.4,6.45,6.45,0,0,0-2.119,1.13l-1.413-2.635a8.816,8.816,0,0,1,2.925-1.413,13.119,13.119,0,0,1,3.617-.487A7.5,7.5,0,0,1,242.535,29.075Zm-3.264,10.95a3.391,3.391,0,0,0,1.491-1.78V36.45h-3.737q-3.13,0-3.13,2.056a1.844,1.844,0,0,0,.784,1.561,3.532,3.532,0,0,0,2.169.579,4.67,4.67,0,0,0,2.423-.622Z" transform="translate(-134.829 -21.586)"/><path class="b" d="M257.108,42.781a9.382,9.382,0,0,1-2.868-1.25l1.413-2.748a9.12,9.12,0,0,0,2.508,1.116,10.6,10.6,0,0,0,2.882.417q3.243,0,3.243-1.71a1.145,1.145,0,0,0-.827-1.13,14.736,14.736,0,0,0-2.649-.608,21.971,21.971,0,0,1-3.115-.664,4.8,4.8,0,0,1-2.119-1.321,3.688,3.688,0,0,1-.883-2.621,4.14,4.14,0,0,1,1.837-3.532,8.393,8.393,0,0,1,4.945-1.314,14.355,14.355,0,0,1,3.193.41,8.88,8.88,0,0,1,2.607.968l-1.413,2.755a8.541,8.541,0,0,0-4.436-1.159,4.945,4.945,0,0,0-2.416.473,1.413,1.413,0,0,0-.77,1.2,1.257,1.257,0,0,0,.883,1.229,14.128,14.128,0,0,0,2.741.706,21.363,21.363,0,0,1,3.038.671,4.719,4.719,0,0,1,2.042,1.272,3.532,3.532,0,0,1,.855,2.55,4.041,4.041,0,0,1-1.879,3.462,8.894,8.894,0,0,1-5.129,1.3,14,14,0,0,1-3.681-.473Z" transform="translate(-141.858 -21.573)"/><path class="b" d="M291.34,26.709a6.784,6.784,0,0,1,1.773,5.072v8.866h-3.624v-8.4a4.352,4.352,0,0,0-.918-3.059,3.532,3.532,0,0,0-2.727-1.031,4.182,4.182,0,0,0-3.158,1.208,4.79,4.79,0,0,0-1.159,3.462v7.82H277.91V19.15h3.6v7.82a5.962,5.962,0,0,1,2.218-1.462,8.1,8.1,0,0,1,2.939-.5,6.457,6.457,0,0,1,4.677,1.7Z" transform="translate(-148.806 -19.15)"/></g></g><rect class="c" width="6" height="30" rx="3" transform="translate(0 6)"/><rect class="d" width="7" height="34" rx="3" transform="translate(9 8)"/><rect class="c" width="7" height="20" rx="3" transform="translate(18 13)"/><rect class="d" width="7" height="36" rx="3" transform="translate(28)"/><rect class="c" width="7" height="33" rx="3" transform="translate(37 8)"/></svg>